<?xml version="1.0" encoding="utf-8"?>
<!-- Generator: Adobe Illustrator 28.0.0, SVG Export Plug-In . SVG Version: 6.00 Build 0)  -->
<svg version="1.1" id="圖層_1" xmlns="http://www.w3.org/2000/svg" xmlns:xlink="http://www.w3.org/1999/xlink" x="0px" y="0px"
	 viewBox="0 0 25 25" style="enable-background:new 0 0 25 25;" xml:space="preserve">
<style type="text/css">
	.st0{fill:#666666;}
	.st1{fill:#B3E7E8;}
</style>
<g>
	<g>
		<g>
			<g>
				<g>
					<path class="st0" d="M10.5,5.2L6.4,6.4v0.1c0,0.8-0.6,1.4-1.4,1.4S3.5,7.3,3.5,6.5C3.4,5.6,4.1,5,4.8,5C5.3,5,5.7,5.2,6,5.6
						l4.4-1.2v0.8C10.4,5.2,10.5,5.2,10.5,5.2z"/>
				</g>
			</g>
			<g>
				<g>
					<path class="st0" d="M5.8,7.9C5.5,8,5.2,8.1,5,8.1l2.7,7.1h0.9L5.8,7.9z M1.3,15.3h0.9l2.7-7.2C4.6,8.1,4.3,8,4.1,7.9L1.3,15.3
						z"/>
				</g>
			</g>
		</g>
		<g>
			<g>
				<g>
					<path class="st0" d="M14.6,5.2V4.4L19,5.6C19.3,5.2,19.7,5,20.2,5c0.7,0,1.4,0.6,1.3,1.5c0,0.8-0.7,1.4-1.5,1.4
						c-0.8,0-1.4-0.6-1.4-1.4V6.4l-4.1-1.2C14.5,5.2,14.6,5.2,14.6,5.2z"/>
				</g>
			</g>
			<g>
				<g>
					<path class="st0" d="M16.4,15.2h0.9L20,8.1c-0.2,0-0.5-0.1-0.8-0.2L16.4,15.2z M20.9,7.9c-0.2,0.1-0.5,0.2-0.8,0.2l2.7,7.2h0.9
						L20.9,7.9z"/>
				</g>
			</g>
		</g>
		<g>
			<g>
				<g>
					<path class="st1" d="M18.5,23.7v0.7c0,0.2-0.2,0.4-0.4,0.4H6.9c-0.2,0-0.4-0.2-0.4-0.4v-0.7c0-0.7,0.6-1.2,1.2-1.2h9.6
						C18,22.5,18.5,22.9,18.5,23.7z"/>
				</g>
			</g>
			<g>
				<g>
					<path class="st1" d="M18.1,23.7v0.5c0,0.2-0.2,0.3-0.4,0.3H7.3c-0.2,0-0.4-0.2-0.4-0.3v-0.5c0-0.5,0.6-0.9,1.2-0.9H17
						C17.6,22.8,18.1,23.1,18.1,23.7z"/>
				</g>
			</g>
		</g>
		<g>
			<path class="st0" d="M11.8,7.1v13.5c-0.9,0.2-1.7,0.7-2.3,1.4h5.9c-0.5-0.7-1.3-1.3-2.3-1.4V7.1c0.9-0.3,1.6-1.2,1.6-2.3
				S14,3,13.1,2.7V0.9c0-0.4-0.3-0.7-0.7-0.7s-0.7,0.3-0.7,0.7v1.7c-0.9,0.3-1.6,1.2-1.6,2.3S10.9,6.8,11.8,7.1z"/>
		</g>
	</g>
	<g>
		<g>
			<path class="st0" d="M10.3,16.5v0.6c0,1-0.7,1.7-1.7,1.7H1.7c-1,0-1.7-0.7-1.7-1.7v-0.6c0-0.5,0.4-0.9,0.9-0.9h8.7
				C9.9,15.7,10.3,16,10.3,16.5z"/>
		</g>
		<g>
			<path class="st1" d="M9.6,16.8v0.4c0,0.7-0.7,1.1-1.4,1.1h-6c-0.8,0-1.4-0.5-1.4-1.1v-0.4c0-0.4,0.4-0.6,0.7-0.6h7.4
				C9.2,16.2,9.6,16.4,9.6,16.8z"/>
		</g>
	</g>
	<g>
		<g>
			<path class="st0" d="M25,16.5v0.6c0,1-0.7,1.7-1.7,1.7h-6.8c-1,0-1.7-0.7-1.7-1.7v-0.6c0-0.5,0.4-0.9,0.9-0.9h8.7
				C24.6,15.7,25,16,25,16.5z"/>
		</g>
		<g>
			<path class="st1" d="M24.3,16.8v0.4c0,0.7-0.7,1.1-1.4,1.1h-6c-0.8,0-1.4-0.5-1.4-1.1v-0.4c0-0.4,0.4-0.6,0.7-0.6h7.4
				C23.9,16.2,24.3,16.4,24.3,16.8z"/>
		</g>
	</g>
</g>
</svg>
